<svg xmlns="http://www.w3.org/2000/svg" xmlns:xlink="http://www.w3.org/1999/xlink" width="200" height="200" viewBox="0 0 200 200">
  <defs>
    <linearGradient id="linear-gradient" y1="1" x2="1" gradientUnits="objectBoundingBox">
      <stop offset="0" stop-color="#09deff"/>
      <stop offset="1" stop-color="#93fabe"/>
    </linearGradient>
  </defs>
  <g id="Icon-RACE_protocol_color_" data-name="Icon-RACE_protocol (color)" transform="translate(-1143 -119)">
    <rect id="Rectangle_17669" data-name="Rectangle 17669" width="200" height="200" transform="translate(1143 119)" fill="rgba(255,255,255,0)"/>
    <g id="Logo" transform="translate(795.31 94.118)">
      <path id="Path_15149" data-name="Path 15149" d="M23.265,41.28H93.5a23.324,23.324,0,0,1,23.265,23.265s-.009,4.4,0,4.369c-.009.648-.661,2.706-3.7,2.706s-4.049-1.731-4.056-2.706c.039.061,0-4.369,0-4.369A15.566,15.566,0,0,0,93.5,49.035H23.265a15.455,15.455,0,0,0-10.95,4.544l-.015.015A15.452,15.452,0,0,0,7.755,64.545v70.237a15.567,15.567,0,0,0,15.51,15.51H130.348a11.634,11.634,0,1,1-.166,7.755H23.265A23.324,23.324,0,0,1,0,134.783V64.546A23.2,23.2,0,0,1,6.832,48.126l.015-.015A23.205,23.205,0,0,1,23.265,41.28Zm7.285,73.028a11.632,11.632,0,1,1-11.633,11.631A11.631,11.631,0,0,1,30.549,114.308ZM86.185,57.566A11.633,11.633,0,1,1,74.552,69.2,11.633,11.633,0,0,1,86.185,57.566Zm27.229,80.1a11.633,11.633,0,1,0-11.633-11.633,11.632,11.632,0,0,0,11.633,11.633Zm0,33.477a11.632,11.632,0,1,1-11.633,11.631,11.631,11.631,0,0,1,11.633-11.631ZM169.05,114.4a11.633,11.633,0,1,1-11.633,11.633A11.633,11.633,0,0,1,169.05,114.4Zm0,80.006a11.633,11.633,0,1,0-11.633-11.633,11.633,11.633,0,0,0,11.633,11.633ZM58.224,87.749a11.635,11.635,0,0,1,11.065,8.037H176.735A23.324,23.324,0,0,1,200,119.051v70.237a23.2,23.2,0,0,1-6.831,16.434l-.008-.008a23.2,23.2,0,0,1-16.426,6.84H106.5a23.325,23.325,0,0,1-23.265-23.265s.062-4.852,0-4.885a3.6,3.6,0,0,1,3.842-2.775c2.793,0,3.951,1.861,3.914,2.775,0,0,0,4.885,0,4.885A15.566,15.566,0,0,0,106.5,204.8h70.237a15.458,15.458,0,0,0,10.952-4.544v-.015a15.469,15.469,0,0,0,4.559-10.952V119.051a15.567,15.567,0,0,0-15.511-15.51H69.089A11.634,11.634,0,1,1,58.223,87.749Z" transform="translate(347.69 -2.035)" fill="url(#linear-gradient)"/>
    </g>
  </g>
</svg>
